Coordinates
version=1
nRows=20
nColumns=23
inDegrees=yes

Units are S.I. units (second, meters, Newtons, ...)
If the header above contains a line with 'inDegrees', this indicates whether rotational values are in degrees (yes) or radians (no).

endheader
time	pelvis_tilt	pelvis_list	pelvis_rotation	pelvis_tx	pelvis_ty	pelvis_tz	hip_flexion_r	hip_adduction_r	hip_rotation_r	knee_angle_r	knee_angle_r_beta	ankle_angle_r	subtalar_angle_r	mtp_angle_r	hip_flexion_l	hip_adduction_l	hip_rotation_l	knee_angle_l	knee_angle_l_beta	ankle_angle_l	subtalar_angle_l	mtp_angle_l
      0.00000000	     -7.89590899	      4.78305388	      2.97119697	      2.35623339	      0.96419393	      1.07760654	    -14.77884129	     -3.86713803	    -12.57222963	     61.28475902	      1.06962083	     -8.55210693	     -0.03857979	      0.00000000	     39.36944415	      9.65835952	      5.69384756	     21.38255636	      0.37319601	     11.21513450	     -4.41373781	      0.00000000
      0.00666667	     -7.14995556	      4.50260163	      3.67440300	      2.35637289	      0.96257388	      1.07610083	    -14.21233218	     -3.87774399	    -13.57830338	     66.11180337	      1.15386864	     -8.56551009	     -2.77093311	      0.00000000	     37.34177420	      9.72302193	      6.10837884	     19.85943558	      0.34661254	     11.34060469	     -3.20938981	      0.00000000
      0.01333333	     -6.42445654	      4.32984607	      4.15742344	      2.35639938	      0.96072197	      1.07503581	    -13.67204320	     -3.85672607	    -14.09857294	     70.75101783	      1.23483821	     -8.82875235	     -6.11123370	      0.00000000	     35.37356120	      9.68494515	      6.20563527	     18.45324008	      0.32206980	     11.27859385	     -2.20861572	      0.00000000
      0.02000000	     -5.90305186	      4.26240539	      4.72466886	      2.35632582	      0.95812965	      1.07373506	    -12.98030100	     -4.00659186	    -14.75215085	     75.33800577	      1.31489625	     -8.83243784	     -8.98445920	      0.00000000	     33.75978491	      9.77751823	      6.14855194	     17.50574777	      0.30553294	     11.11174145	     -1.36435749	      0.00000000
      0.02666667	     -5.39692726	      4.27284701	      5.38227942	      2.35606251	      0.95505377	      1.07214019	    -12.29264466	     -4.24002284	    -15.45164055	     79.84767562	      1.39360484	     -8.62125877	    -11.36496240	      0.00000000	     32.36553978	      9.99335686	      6.02347520	     17.23992117	      0.30089339	     10.77790465	     -0.84493256	      0.00000000
      0.03333333	     -5.07194287	      4.38190545	      5.90810001	      2.35554796	      0.95149931	      1.07086113	    -11.30594315	     -4.57279381	    -15.90484367	     84.34216225	      1.47204843	     -8.57960911	    -14.19632291	      0.00000000	     31.33996158	     10.15692102	      5.32449767	     17.58202930	      0.30686430	     10.09168527	     -0.66195335	      0.00000000
      0.04000000	     -4.55359948	      4.63242086	      6.64775628	      2.35478790	      0.94766029	      1.06910608	    -10.55520105	     -5.10723662	    -16.60274494	     88.76174856	      1.54918476	     -8.10456035	    -16.09479001	      0.00000000	     30.34603534	     10.56144206	      4.69036601	     18.77257645	      0.32764327	      9.25302151	     -0.94222598	      0.00000000
      0.04666667	     -4.70850912	      4.82191053	      7.17454896	      2.35350752	      0.94261184	      1.06766675	     -8.80948513	     -5.66719359	    -16.83446866	     93.35195494	      1.62929898	     -7.84391907	    -18.05483217	      0.00000000	     30.40406571	     10.76800514	      3.47077613	     20.86055163	      0.36408531	      8.47074782	     -1.16479707	      0.00000000
      0.05333333	     -4.66511980	      5.10094340	      7.78465938	      2.35193040	      0.93739089	      1.06616441	     -7.22279674	     -6.35177971	    -17.10267514	     97.84680686	      1.70774894	     -7.31654302	    -19.35704668	      0.00000000	     30.44869617	     11.02050969	      2.19516467	     23.66672319	      0.41306224	      7.88412453	     -1.43663291	      0.00000000
      0.06000000	     -4.63762365	      5.42193474	      8.37741109	      2.35003733	      0.93191272	      1.06477883	     -5.47914316	     -7.08038943	    -17.19083594	    102.28262916	      1.78516865	     -6.72153189	    -20.20007441	      0.00000000	     30.59378301	     11.27222745	      1.04174235	     26.92219270	      0.46988090	      7.61043277	     -1.89144071	      0.00000000
      0.06666667	     -4.51993961	      5.66048012	      8.88314536	      2.34785488	      0.92634823	      1.06378715	     -3.65089704	     -7.70877022	    -17.05695886	    106.58505679	      1.86026017	     -6.12000202	    -20.65353398	      0.00000000	     30.77297512	     11.25429091	     -0.28104405	     30.67655282	      0.53540685	      8.19853523	     -1.61186519	      0.00000000
      0.07333333	     -4.45874359	      5.93168157	      9.34825437	      2.34534675	      0.92078084	      1.06292599	     -1.58881556	     -8.40461773	    -16.71795240	    110.76513170	      1.93321624	     -5.41094181	    -20.57423521	      0.00000000	     30.88513705	     11.33643502	     -1.04517613	     34.38163342	      0.60007271	      9.22295030	     -1.74854145	      0.00000000
      0.08000000	     -4.10485947	      6.23453462	      9.74992659	      2.34264920	      0.91593745	      1.06230742	      0.31518210	     -9.07779168	    -16.18218062	    114.66511821	      2.00128385	     -4.71126772	    -20.07624813	      0.00000000	     30.48481894	     11.43965849	     -1.37730124	     37.88005830	      0.66113174	     10.95336198	     -1.88885404	      0.00000000
      0.08666667	     -4.08447277	      6.42210219	     10.01397473	      2.33969295	      0.91096401	      1.06214215	      2.85573682	     -9.70219540	    -15.35565671	    118.39114383	      2.06631527	     -3.91655796	    -18.95366766	      0.00000000	     30.35530089	     11.21403463	     -2.11733246	     41.30953973	      0.72098748	     13.07648072	     -0.82218878	      0.00000000
      0.09333333	     -3.71162344	      6.65288142	     10.16581802	      2.33673229	      0.90720355	      1.06220054	      5.18566027	    -10.29694229	    -14.32638793	    121.69745030	      2.12402120	     -3.16846427	    -17.59199225	      0.00000000	     29.47952429	     10.99957065	     -2.49212806	     44.16172303	      0.77076747	     15.59667063	      0.19557966	      0.00000000
      0.10000000	     -3.27918018	      6.87868896	     10.18005792	      2.33378905	      0.90432943	      1.06251275	      7.65880513	    -10.86333745	    -13.09782563	    124.60139068	      2.17470452	     -2.42759153	    -15.96401417	      0.00000000	     28.19272096	     10.73092419	     -2.74007596	     46.42116107	      0.81020210	     18.21018081	      1.32301048	      0.00000000
      0.10666667	     -2.85118737	      7.06509342	     10.04594226	      2.33090214	      0.90234012	      1.06301721	     10.34982475	    -11.36890858	    -11.68567611	    127.06142051	      2.21764014	     -1.72999944	    -14.17553674	      0.00000000	     26.56596832	     10.37558709	     -2.94556839	     48.06990488	      0.83897811	     20.77839172	      2.58287233	      0.00000000
      0.11333333	     -2.07946484	      7.11092103	      9.96980699	      2.32820285	      0.90190954	      1.06337543	     12.73930724	    -11.61850314	    -10.41285791	    128.85059984	      2.24886721	     -1.62101370	    -13.19369582	      0.00000000	     24.16537289	     10.12503850	     -2.33826157	     48.94131072	      0.85418701	     22.83343732	      2.76551549	      0.00000000
      0.12000000	     -2.00449291	      7.29945948	      9.37369883	      2.32562348	      0.90085975	      1.06420461	     16.22285525	    -12.10118574	     -8.48327190	    130.52260803	      2.27804926	     -0.36015731	    -10.42998998	      0.00000000	     22.32985996	      9.53898280	     -3.21528525	     49.50123886	      0.86395960	     25.06471147	      4.61125966	      0.00000000
      0.12666667	     -1.62851707	      7.27506564	      8.79019441	      2.32332084	      0.90123388	      1.06489235	     19.39746434	    -12.15699939	     -6.75205719	    131.49220283	      2.29497188	      0.23254277	     -8.84312241	      0.00000000	     19.84805680	      8.99108804	     -3.40915291	     49.37769793	      0.86180341	     26.58397208	      5.43313086	      0.00000000
